<mxfile host="app.diagrams.net" agent="Mozilla/5.0 (Windows NT 10.0; Win64; x64) AppleWebKit/537.36 (KHTML, like Gecko) Chrome/128.0.0.0 Safari/537.36" version="24.7.16">
  <diagram name="Page-1" id="t6u5DEfv4jWgb9-mPZrM">
    <mxGraphModel dx="2625" dy="1435" grid="1" gridSize="10" guides="1" tooltips="1" connect="1" arrows="1" fold="1" page="1" pageScale="1" pageWidth="1400" pageHeight="1000" math="0" shadow="0">
      <root>
        <mxCell id="0" />
        <mxCell id="1" parent="0" />
        <mxCell id="2" value="User" style="shape=umlLifeline;perimeter=lifelinePerimeter;whiteSpace=wrap;container=1;dropTarget=0;collapsible=0;recursiveResize=0;outlineConnect=0;portConstraint=eastwest;newEdgeStyle={&quot;edgeStyle&quot;:&quot;elbowEdgeStyle&quot;,&quot;elbow&quot;:&quot;vertical&quot;,&quot;curved&quot;:0,&quot;rounded&quot;:0};size=65;" parent="1" vertex="1">
          <mxGeometry x="30" y="60" width="150" height="820" as="geometry" />
        </mxCell>
        <mxCell id="3" value="Trang Login" style="shape=umlLifeline;perimeter=lifelinePerimeter;whiteSpace=wrap;container=1;dropTarget=0;collapsible=0;recursiveResize=0;outlineConnect=0;portConstraint=eastwest;newEdgeStyle={&quot;edgeStyle&quot;:&quot;elbowEdgeStyle&quot;,&quot;elbow&quot;:&quot;vertical&quot;,&quot;curved&quot;:0,&quot;rounded&quot;:0};size=65;" parent="1" vertex="1">
          <mxGeometry x="300" y="60" width="150" height="820" as="geometry" />
        </mxCell>
        <mxCell id="4" value="Server" style="shape=umlLifeline;perimeter=lifelinePerimeter;whiteSpace=wrap;container=1;dropTarget=0;collapsible=0;recursiveResize=0;outlineConnect=0;portConstraint=eastwest;newEdgeStyle={&quot;edgeStyle&quot;:&quot;elbowEdgeStyle&quot;,&quot;elbow&quot;:&quot;vertical&quot;,&quot;curved&quot;:0,&quot;rounded&quot;:0};size=65;" parent="1" vertex="1">
          <mxGeometry x="600" y="60" width="150" height="820" as="geometry" />
        </mxCell>
        <mxCell id="5" value="" style="verticalAlign=bottom;edgeStyle=elbowEdgeStyle;elbow=vertical;curved=0;rounded=0;endArrow=block;fillColor=#f5f5f5;strokeColor=#666666;fontSize=12;" parent="1" source="2" target="3" edge="1">
          <mxGeometry relative="1" as="geometry">
            <Array as="points">
              <mxPoint x="260" y="154" />
              <mxPoint x="247.68" y="-109" />
            </Array>
            <mxPoint x="104.07142857142844" y="154" as="sourcePoint" />
            <mxPoint x="404.5000000000002" y="154" as="targetPoint" />
          </mxGeometry>
        </mxCell>
        <mxCell id="f1zpKs2hB1cjlDNRJTF1-17" value="&lt;font style=&quot;font-size: 13px;&quot;&gt;Chọn đăng ký tài khoản mới&lt;/font&gt;" style="edgeLabel;html=1;align=center;verticalAlign=middle;resizable=0;points=[];fontSize=13;" vertex="1" connectable="0" parent="5">
          <mxGeometry x="-0.0078" y="-1" relative="1" as="geometry">
            <mxPoint x="-3" y="-16" as="offset" />
          </mxGeometry>
        </mxCell>
        <mxCell id="6" value="Gửi request mở trang đăng ký" style="verticalAlign=bottom;edgeStyle=elbowEdgeStyle;elbow=vertical;curved=0;rounded=0;endArrow=block;fontSize=13;" parent="1" source="3" target="4" edge="1">
          <mxGeometry x="0.0038" y="10" relative="1" as="geometry">
            <Array as="points">
              <mxPoint x="560" y="174" />
              <mxPoint x="530" y="184" />
            </Array>
            <mxPoint x="404.07142857142867" y="174" as="sourcePoint" />
            <mxPoint x="694.5000000000005" y="174" as="targetPoint" />
            <mxPoint as="offset" />
          </mxGeometry>
        </mxCell>
        <mxCell id="7" value="Trả về địa chỉ trang đăng ký" style="verticalAlign=bottom;edgeStyle=elbowEdgeStyle;elbow=vertical;curved=0;rounded=0;dashed=1;dashPattern=2 3;endArrow=block;fontSize=13;" parent="1" source="4" target="3" edge="1">
          <mxGeometry x="0.058" y="-10" relative="1" as="geometry">
            <Array as="points">
              <mxPoint x="570" y="214" />
            </Array>
            <mxPoint x="700.18" y="214" as="sourcePoint" />
            <mxPoint x="430" y="214" as="targetPoint" />
            <mxPoint x="-1" as="offset" />
          </mxGeometry>
        </mxCell>
        <mxCell id="8" value="Thông báo đăng ký thành công" style="verticalAlign=top;edgeStyle=elbowEdgeStyle;elbow=vertical;curved=0;rounded=0;dashed=1;dashPattern=2 3;endArrow=block;fontSize=13;" parent="1" target="2" edge="1">
          <mxGeometry x="-0.0112" y="-30" relative="1" as="geometry">
            <Array as="points">
              <mxPoint x="526.17" y="520" />
            </Array>
            <mxPoint x="930.67" y="519.9999999999998" as="sourcePoint" />
            <mxPoint x="100.00333333333326" y="519.9999999999998" as="targetPoint" />
            <mxPoint x="-1" as="offset" />
          </mxGeometry>
        </mxCell>
        <mxCell id="9" value="Trở lại trang đăng nhập" style="verticalAlign=bottom;edgeStyle=elbowEdgeStyle;elbow=vertical;curved=0;rounded=0;dashed=1;dashPattern=2 3;endArrow=block;fontSize=13;" parent="1" source="f1zpKs2hB1cjlDNRJTF1-18" edge="1">
          <mxGeometry x="0.0159" y="-10" relative="1" as="geometry">
            <Array as="points">
              <mxPoint x="645.93" y="560" />
              <mxPoint x="505.93" y="777" />
              <mxPoint x="291.85999999999996" y="707" />
              <mxPoint x="239.85999999999996" y="698" />
            </Array>
            <mxPoint x="920.4300000000004" y="560" as="sourcePoint" />
            <mxPoint x="380.0014285714287" y="560" as="targetPoint" />
            <mxPoint as="offset" />
          </mxGeometry>
        </mxCell>
        <mxCell id="10" value="Gửi thông tin đăng ký" style="verticalAlign=bottom;edgeStyle=elbowEdgeStyle;elbow=vertical;curved=0;rounded=0;dashed=1;dashPattern=2 3;endArrow=block;fontSize=13;" parent="1" source="f1zpKs2hB1cjlDNRJTF1-18" target="4" edge="1">
          <mxGeometry x="-0.0057" y="-10" relative="1" as="geometry">
            <Array as="points">
              <mxPoint x="805.93" y="389" />
              <mxPoint x="526.93" y="324" />
            </Array>
            <mxPoint x="930.4300000000004" y="389" as="sourcePoint" />
            <mxPoint x="680.0014285714284" y="389" as="targetPoint" />
            <mxPoint as="offset" />
          </mxGeometry>
        </mxCell>
        <mxCell id="11" value="Trả về hợp lệ" style="verticalAlign=bottom;edgeStyle=elbowEdgeStyle;elbow=vertical;curved=0;rounded=0;endArrow=block;fontSize=13;" parent="1" source="4" target="f1zpKs2hB1cjlDNRJTF1-18" edge="1">
          <mxGeometry x="-0.0742" y="10" relative="1" as="geometry">
            <Array as="points">
              <mxPoint x="795.93" y="494" />
              <mxPoint x="841.86" y="748" />
              <mxPoint x="809.86" y="677" />
            </Array>
            <mxPoint x="680.0014285714284" y="494" as="sourcePoint" />
            <mxPoint x="930.4300000000004" y="494" as="targetPoint" />
            <mxPoint as="offset" />
          </mxGeometry>
        </mxCell>
        <mxCell id="f1zpKs2hB1cjlDNRJTF1-15" value="Thao tác với tài khoản" style="text;html=1;align=center;verticalAlign=middle;resizable=0;points=[];autosize=1;strokeColor=none;fillColor=none;fontSize=21;" vertex="1" parent="1">
          <mxGeometry x="410" y="10" width="230" height="40" as="geometry" />
        </mxCell>
        <mxCell id="f1zpKs2hB1cjlDNRJTF1-18" value="Trang Register" style="shape=umlLifeline;perimeter=lifelinePerimeter;whiteSpace=wrap;container=1;dropTarget=0;collapsible=0;recursiveResize=0;outlineConnect=0;portConstraint=eastwest;newEdgeStyle={&quot;edgeStyle&quot;:&quot;elbowEdgeStyle&quot;,&quot;elbow&quot;:&quot;vertical&quot;,&quot;curved&quot;:0,&quot;rounded&quot;:0};size=65;" vertex="1" parent="1">
          <mxGeometry x="860" y="60" width="150" height="820" as="geometry" />
        </mxCell>
        <mxCell id="f1zpKs2hB1cjlDNRJTF1-20" value="" style="endArrow=classic;html=1;rounded=0;" edge="1" parent="1" source="3">
          <mxGeometry width="50" height="50" relative="1" as="geometry">
            <mxPoint x="404.07142857142867" y="254" as="sourcePoint" />
            <mxPoint x="930" y="254" as="targetPoint" />
            <Array as="points" />
          </mxGeometry>
        </mxCell>
        <mxCell id="f1zpKs2hB1cjlDNRJTF1-22" value="&lt;span style=&quot;font-size: 13px;&quot;&gt;Chuyển sang trang đăng ký&lt;/span&gt;" style="edgeLabel;html=1;align=center;verticalAlign=middle;resizable=0;points=[];" vertex="1" connectable="0" parent="f1zpKs2hB1cjlDNRJTF1-20">
          <mxGeometry x="-0.2991" y="2" relative="1" as="geometry">
            <mxPoint x="69" y="-18" as="offset" />
          </mxGeometry>
        </mxCell>
        <mxCell id="f1zpKs2hB1cjlDNRJTF1-24" value="" style="endArrow=classic;html=1;rounded=0;" edge="1" parent="1" source="2">
          <mxGeometry width="50" height="50" relative="1" as="geometry">
            <mxPoint x="100.00142857142845" y="304" as="sourcePoint" />
            <mxPoint x="930" y="304" as="targetPoint" />
            <Array as="points" />
          </mxGeometry>
        </mxCell>
        <mxCell id="f1zpKs2hB1cjlDNRJTF1-25" value="&lt;span style=&quot;font-size: 13px;&quot;&gt;Nhập các thông tin đăng ký&lt;/span&gt;" style="edgeLabel;html=1;align=center;verticalAlign=middle;resizable=0;points=[];" vertex="1" connectable="0" parent="f1zpKs2hB1cjlDNRJTF1-24">
          <mxGeometry x="-0.2991" y="2" relative="1" as="geometry">
            <mxPoint x="120" y="-18" as="offset" />
          </mxGeometry>
        </mxCell>
        <mxCell id="f1zpKs2hB1cjlDNRJTF1-26" value="" style="endArrow=classic;html=1;rounded=0;" edge="1" parent="1" source="f1zpKs2hB1cjlDNRJTF1-18" target="f1zpKs2hB1cjlDNRJTF1-18">
          <mxGeometry width="50" height="50" relative="1" as="geometry">
            <mxPoint x="944.0714285714284" y="324" as="sourcePoint" />
            <mxPoint x="945" y="364" as="targetPoint" />
            <Array as="points">
              <mxPoint x="980" y="324" />
              <mxPoint x="980" y="364" />
            </Array>
          </mxGeometry>
        </mxCell>
        <mxCell id="f1zpKs2hB1cjlDNRJTF1-27" value="&lt;font style=&quot;font-size: 13px;&quot;&gt;Kiểm tra điền đầy đủ thông tin,&amp;nbsp;&lt;/font&gt;&lt;div&gt;&lt;font style=&quot;font-size: 13px;&quot;&gt;tên người dùng hợp lệ&lt;/font&gt;&lt;/div&gt;" style="edgeLabel;html=1;align=center;verticalAlign=middle;resizable=0;points=[];" vertex="1" connectable="0" parent="f1zpKs2hB1cjlDNRJTF1-26">
          <mxGeometry x="0.0036" relative="1" as="geometry">
            <mxPoint x="100" y="-5" as="offset" />
          </mxGeometry>
        </mxCell>
        <mxCell id="f1zpKs2hB1cjlDNRJTF1-28" value="" style="endArrow=classic;html=1;rounded=0;" edge="1" parent="1" source="4" target="4">
          <mxGeometry width="50" height="50" relative="1" as="geometry">
            <mxPoint x="680.0014285714284" y="417" as="sourcePoint" />
            <mxPoint x="680.0014285714284" y="457" as="targetPoint" />
            <Array as="points">
              <mxPoint x="721.93" y="417" />
              <mxPoint x="721.93" y="457" />
            </Array>
          </mxGeometry>
        </mxCell>
        <mxCell id="f1zpKs2hB1cjlDNRJTF1-29" value="&lt;font style=&quot;font-size: 13px;&quot;&gt;Kiểm tra email, t&lt;/font&gt;&lt;span style=&quot;font-size: 13px;&quot;&gt;ên người dùng&lt;/span&gt;&lt;div&gt;&lt;span style=&quot;font-size: 13px;&quot;&gt;đã tồn tại chưa&lt;/span&gt;&lt;/div&gt;" style="edgeLabel;html=1;align=center;verticalAlign=middle;resizable=0;points=[];" vertex="1" connectable="0" parent="f1zpKs2hB1cjlDNRJTF1-28">
          <mxGeometry x="0.0036" relative="1" as="geometry">
            <mxPoint x="104" y="-5" as="offset" />
          </mxGeometry>
        </mxCell>
        <mxCell id="f1zpKs2hB1cjlDNRJTF1-30" value="" style="verticalAlign=bottom;edgeStyle=elbowEdgeStyle;elbow=vertical;curved=0;rounded=0;endArrow=block;fillColor=#f5f5f5;strokeColor=#666666;fontSize=12;" edge="1" parent="1" source="2" target="3">
          <mxGeometry relative="1" as="geometry">
            <Array as="points">
              <mxPoint x="240" y="584" />
              <mxPoint x="261.93" y="584" />
              <mxPoint x="249.61" y="321" />
            </Array>
            <mxPoint x="100.00142857142845" y="584" as="sourcePoint" />
            <mxPoint x="400.43000000000023" y="584" as="targetPoint" />
          </mxGeometry>
        </mxCell>
        <mxCell id="f1zpKs2hB1cjlDNRJTF1-31" value="Điền thông tin đăng nhập" style="edgeLabel;html=1;align=center;verticalAlign=middle;resizable=0;points=[];fontSize=13;" vertex="1" connectable="0" parent="f1zpKs2hB1cjlDNRJTF1-30">
          <mxGeometry x="-0.0078" y="-1" relative="1" as="geometry">
            <mxPoint x="-3" y="-16" as="offset" />
          </mxGeometry>
        </mxCell>
        <mxCell id="f1zpKs2hB1cjlDNRJTF1-32" value="" style="endArrow=classic;html=1;rounded=0;" edge="1" parent="1" source="3" target="3">
          <mxGeometry width="50" height="50" relative="1" as="geometry">
            <mxPoint x="380.0014285714287" y="604" as="sourcePoint" />
            <mxPoint x="380.0014285714287" y="634" as="targetPoint" />
            <Array as="points">
              <mxPoint x="415.93" y="604" />
              <mxPoint x="415.93" y="634" />
            </Array>
          </mxGeometry>
        </mxCell>
        <mxCell id="f1zpKs2hB1cjlDNRJTF1-33" value="&lt;font style=&quot;font-size: 13px;&quot;&gt;Kiểm tra điền đầy đủ thông tin&lt;/font&gt;" style="edgeLabel;html=1;align=center;verticalAlign=middle;resizable=0;points=[];" vertex="1" connectable="0" parent="f1zpKs2hB1cjlDNRJTF1-32">
          <mxGeometry x="0.0036" relative="1" as="geometry">
            <mxPoint x="100" y="-5" as="offset" />
          </mxGeometry>
        </mxCell>
        <mxCell id="f1zpKs2hB1cjlDNRJTF1-34" value="Gửi thông tin đăng nhập" style="verticalAlign=bottom;edgeStyle=elbowEdgeStyle;elbow=vertical;curved=0;rounded=0;dashed=1;dashPattern=2 3;endArrow=block;fontSize=13;" edge="1" parent="1" source="3" target="4">
          <mxGeometry x="-0.0639" y="10" relative="1" as="geometry">
            <Array as="points">
              <mxPoint x="530.43" y="674" />
              <mxPoint x="541.86" y="911" />
              <mxPoint x="262.86" y="846" />
            </Array>
            <mxPoint x="404.07142857142867" y="674" as="sourcePoint" />
            <mxPoint x="694.5000000000005" y="674" as="targetPoint" />
            <mxPoint as="offset" />
          </mxGeometry>
        </mxCell>
        <mxCell id="f1zpKs2hB1cjlDNRJTF1-35" value="" style="endArrow=classic;html=1;rounded=0;" edge="1" parent="1" source="4" target="4">
          <mxGeometry width="50" height="50" relative="1" as="geometry">
            <mxPoint x="680.0033333333336" y="700" as="sourcePoint" />
            <mxPoint x="680.0033333333336" y="740" as="targetPoint" />
            <Array as="points">
              <mxPoint x="720" y="700" />
              <mxPoint x="720" y="740" />
            </Array>
          </mxGeometry>
        </mxCell>
        <mxCell id="f1zpKs2hB1cjlDNRJTF1-36" value="&lt;span style=&quot;font-size: 13px;&quot;&gt;Kiểm tra thông tin đăng nhập&lt;/span&gt;" style="edgeLabel;html=1;align=center;verticalAlign=middle;resizable=0;points=[];" vertex="1" connectable="0" parent="f1zpKs2hB1cjlDNRJTF1-35">
          <mxGeometry x="0.0036" relative="1" as="geometry">
            <mxPoint x="104" y="-5" as="offset" />
          </mxGeometry>
        </mxCell>
        <mxCell id="f1zpKs2hB1cjlDNRJTF1-37" value="Thông báo đăng nhập thành công" style="verticalAlign=bottom;edgeStyle=elbowEdgeStyle;elbow=vertical;curved=0;rounded=0;dashed=1;dashPattern=2 3;endArrow=block;fontSize=13;" edge="1" parent="1" source="4">
          <mxGeometry x="0.0169" y="-10" relative="1" as="geometry">
            <Array as="points" />
            <mxPoint x="663.5" y="760.6666666666667" as="sourcePoint" />
            <mxPoint x="110" y="760" as="targetPoint" />
            <mxPoint as="offset" />
          </mxGeometry>
        </mxCell>
        <mxCell id="f1zpKs2hB1cjlDNRJTF1-40" value="Truy cập trang chủ" style="verticalAlign=top;edgeStyle=elbowEdgeStyle;elbow=vertical;curved=0;rounded=0;dashed=1;dashPattern=2 3;endArrow=block;fontSize=13;" edge="1" parent="1" source="2">
          <mxGeometry x="0.0012" y="31" relative="1" as="geometry">
            <Array as="points" />
            <mxPoint x="100.00333333333326" y="813.9999999999999" as="sourcePoint" />
            <mxPoint x="1150" y="810" as="targetPoint" />
            <mxPoint x="-1" as="offset" />
          </mxGeometry>
        </mxCell>
      </root>
    </mxGraphModel>
  </diagram>
</mxfile>
